<mxfile host="app.diagrams.net" modified="2023-05-24T10:56:46.691Z" agent="Mozilla/5.0 (Windows NT 10.0; Win64; x64) AppleWebKit/537.36 (KHTML, like Gecko) Chrome/113.0.0.0 Safari/537.36" etag="1N5ELQ865PX4I5tdmcZ-" version="21.3.3" type="github">
  <diagram name="Página-1" id="f9GAz--3TaG9j7ydQLEC">
    <mxGraphModel dx="933" dy="1596" grid="1" gridSize="10" guides="1" tooltips="1" connect="1" arrows="1" fold="1" page="1" pageScale="1" pageWidth="827" pageHeight="1169" math="0" shadow="0">
      <root>
        <mxCell id="0" />
        <mxCell id="1" parent="0" />
        <mxCell id="6z_8eq6uR2tbXGdqgOz1-1" value="ISP" style="rounded=1;whiteSpace=wrap;html=1;" vertex="1" parent="1">
          <mxGeometry x="240" y="10" width="120" height="60" as="geometry" />
        </mxCell>
        <mxCell id="6z_8eq6uR2tbXGdqgOz1-73" value="" style="edgeStyle=orthogonalEdgeStyle;rounded=0;orthogonalLoop=1;jettySize=auto;html=1;shape=link;" edge="1" parent="1" source="6z_8eq6uR2tbXGdqgOz1-2" target="6z_8eq6uR2tbXGdqgOz1-71">
          <mxGeometry relative="1" as="geometry" />
        </mxCell>
        <mxCell id="6z_8eq6uR2tbXGdqgOz1-2" value="Servidor" style="whiteSpace=wrap;html=1;aspect=fixed;" vertex="1" parent="1">
          <mxGeometry x="270" y="160" width="60" height="60" as="geometry" />
        </mxCell>
        <mxCell id="6z_8eq6uR2tbXGdqgOz1-3" value="Switch 1" style="rounded=0;whiteSpace=wrap;html=1;" vertex="1" parent="1">
          <mxGeometry x="60" y="270" width="120" height="30" as="geometry" />
        </mxCell>
        <mxCell id="6z_8eq6uR2tbXGdqgOz1-4" value="Switch 2" style="rounded=0;whiteSpace=wrap;html=1;" vertex="1" parent="1">
          <mxGeometry x="420" y="270" width="120" height="30" as="geometry" />
        </mxCell>
        <mxCell id="6z_8eq6uR2tbXGdqgOz1-5" value="" style="endArrow=none;html=1;rounded=0;entryX=0;entryY=0.5;entryDx=0;entryDy=0;exitX=0.5;exitY=0;exitDx=0;exitDy=0;" edge="1" parent="1" source="6z_8eq6uR2tbXGdqgOz1-3" target="6z_8eq6uR2tbXGdqgOz1-2">
          <mxGeometry width="50" height="50" relative="1" as="geometry">
            <mxPoint x="280" y="730" as="sourcePoint" />
            <mxPoint x="330" y="680" as="targetPoint" />
            <Array as="points">
              <mxPoint x="120" y="220" />
            </Array>
          </mxGeometry>
        </mxCell>
        <mxCell id="6z_8eq6uR2tbXGdqgOz1-6" value="" style="endArrow=none;html=1;rounded=0;exitX=1;exitY=0.5;exitDx=0;exitDy=0;entryX=0.5;entryY=0;entryDx=0;entryDy=0;" edge="1" parent="1" source="6z_8eq6uR2tbXGdqgOz1-2" target="6z_8eq6uR2tbXGdqgOz1-4">
          <mxGeometry width="50" height="50" relative="1" as="geometry">
            <mxPoint x="410" y="210" as="sourcePoint" />
            <mxPoint x="460" y="160" as="targetPoint" />
            <Array as="points">
              <mxPoint x="480" y="220" />
            </Array>
          </mxGeometry>
        </mxCell>
        <mxCell id="6z_8eq6uR2tbXGdqgOz1-8" value="" style="endArrow=none;html=1;rounded=0;entryX=0.5;entryY=1;entryDx=0;entryDy=0;exitX=0.5;exitY=0;exitDx=0;exitDy=0;" edge="1" parent="1" source="6z_8eq6uR2tbXGdqgOz1-11" target="6z_8eq6uR2tbXGdqgOz1-3">
          <mxGeometry width="50" height="50" relative="1" as="geometry">
            <mxPoint x="120" y="360" as="sourcePoint" />
            <mxPoint x="120" y="310" as="targetPoint" />
          </mxGeometry>
        </mxCell>
        <mxCell id="6z_8eq6uR2tbXGdqgOz1-11" value="Aula Informática" style="swimlane;whiteSpace=wrap;html=1;startSize=30;" vertex="1" parent="1">
          <mxGeometry x="18.75" y="390" width="202.5" height="310" as="geometry" />
        </mxCell>
        <mxCell id="6z_8eq6uR2tbXGdqgOz1-12" value="Aula01" style="text;html=1;align=center;verticalAlign=middle;resizable=0;points=[];autosize=1;strokeColor=none;fillColor=none;flipV=1;" vertex="1" parent="6z_8eq6uR2tbXGdqgOz1-11">
          <mxGeometry x="10" y="40" width="60" height="30" as="geometry" />
        </mxCell>
        <mxCell id="6z_8eq6uR2tbXGdqgOz1-13" value="Aula02" style="text;html=1;align=center;verticalAlign=middle;resizable=0;points=[];autosize=1;strokeColor=none;fillColor=none;flipV=1;" vertex="1" parent="6z_8eq6uR2tbXGdqgOz1-11">
          <mxGeometry x="75" y="40" width="60" height="30" as="geometry" />
        </mxCell>
        <mxCell id="6z_8eq6uR2tbXGdqgOz1-14" value="Aula03" style="text;html=1;align=center;verticalAlign=middle;resizable=0;points=[];autosize=1;strokeColor=none;fillColor=none;flipV=1;" vertex="1" parent="6z_8eq6uR2tbXGdqgOz1-11">
          <mxGeometry x="145" y="40" width="60" height="30" as="geometry" />
        </mxCell>
        <mxCell id="6z_8eq6uR2tbXGdqgOz1-22" value="Aula11" style="text;html=1;align=center;verticalAlign=middle;resizable=0;points=[];autosize=1;strokeColor=none;fillColor=none;" vertex="1" parent="6z_8eq6uR2tbXGdqgOz1-11">
          <mxGeometry x="75" y="190" width="60" height="30" as="geometry" />
        </mxCell>
        <mxCell id="6z_8eq6uR2tbXGdqgOz1-24" value="Aula10" style="text;html=1;align=center;verticalAlign=middle;resizable=0;points=[];autosize=1;strokeColor=none;fillColor=none;flipV=1;" vertex="1" parent="6z_8eq6uR2tbXGdqgOz1-11">
          <mxGeometry x="10" y="190" width="60" height="30" as="geometry" />
        </mxCell>
        <mxCell id="6z_8eq6uR2tbXGdqgOz1-25" value="Aula09" style="text;html=1;align=center;verticalAlign=middle;resizable=0;points=[];autosize=1;strokeColor=none;fillColor=none;flipV=1;" vertex="1" parent="6z_8eq6uR2tbXGdqgOz1-11">
          <mxGeometry x="145" y="140" width="60" height="30" as="geometry" />
        </mxCell>
        <mxCell id="6z_8eq6uR2tbXGdqgOz1-26" value="Aula08" style="text;html=1;align=center;verticalAlign=middle;resizable=0;points=[];autosize=1;strokeColor=none;fillColor=none;flipV=1;" vertex="1" parent="6z_8eq6uR2tbXGdqgOz1-11">
          <mxGeometry x="75" y="140" width="60" height="30" as="geometry" />
        </mxCell>
        <mxCell id="6z_8eq6uR2tbXGdqgOz1-27" value="Aula07" style="text;html=1;align=center;verticalAlign=middle;resizable=0;points=[];autosize=1;strokeColor=none;fillColor=none;flipV=1;" vertex="1" parent="6z_8eq6uR2tbXGdqgOz1-11">
          <mxGeometry x="10" y="140" width="60" height="30" as="geometry" />
        </mxCell>
        <mxCell id="6z_8eq6uR2tbXGdqgOz1-28" value="Aula06" style="text;html=1;align=center;verticalAlign=middle;resizable=0;points=[];autosize=1;strokeColor=none;fillColor=none;flipV=1;" vertex="1" parent="6z_8eq6uR2tbXGdqgOz1-11">
          <mxGeometry x="145" y="90" width="60" height="30" as="geometry" />
        </mxCell>
        <mxCell id="6z_8eq6uR2tbXGdqgOz1-29" value="Aula05" style="text;html=1;align=center;verticalAlign=middle;resizable=0;points=[];autosize=1;strokeColor=none;fillColor=none;flipV=1;" vertex="1" parent="6z_8eq6uR2tbXGdqgOz1-11">
          <mxGeometry x="75" y="90" width="60" height="30" as="geometry" />
        </mxCell>
        <mxCell id="6z_8eq6uR2tbXGdqgOz1-30" value="Aula04" style="text;html=1;align=center;verticalAlign=middle;resizable=0;points=[];autosize=1;strokeColor=none;fillColor=none;flipV=1;" vertex="1" parent="6z_8eq6uR2tbXGdqgOz1-11">
          <mxGeometry x="10" y="90" width="60" height="30" as="geometry" />
        </mxCell>
        <mxCell id="6z_8eq6uR2tbXGdqgOz1-35" value="IP: 124.104.20.10-21/24&lt;br&gt;GW: 124.104.20.1&lt;br&gt;DNS: 124.104.20.1" style="text;html=1;align=left;verticalAlign=middle;whiteSpace=wrap;rounded=0;fillColor=#f5f5f5;fontColor=#333333;strokeColor=#666666;" vertex="1" parent="6z_8eq6uR2tbXGdqgOz1-11">
          <mxGeometry x="30" y="230" width="145" height="60" as="geometry" />
        </mxCell>
        <mxCell id="6z_8eq6uR2tbXGdqgOz1-36" value="&lt;div style=&quot;text-align: left;&quot;&gt;&lt;span style=&quot;background-color: initial;&quot;&gt;IP: 124.104.20.1/24&lt;/span&gt;&lt;/div&gt;&lt;div style=&quot;text-align: left;&quot;&gt;&lt;span style=&quot;background-color: initial;&quot;&gt;GW: -&lt;/span&gt;&lt;/div&gt;&lt;div style=&quot;text-align: left;&quot;&gt;&lt;span style=&quot;background-color: initial;&quot;&gt;DNS: 127.0.0.1&lt;/span&gt;&lt;/div&gt;" style="text;html=1;strokeColor=#666666;fillColor=#f5f5f5;align=center;verticalAlign=middle;whiteSpace=wrap;rounded=0;fontColor=#333333;" vertex="1" parent="1">
          <mxGeometry y="210" width="110" height="50" as="geometry" />
        </mxCell>
        <mxCell id="6z_8eq6uR2tbXGdqgOz1-37" value="&lt;div style=&quot;text-align: left;&quot;&gt;&lt;span style=&quot;background-color: initial;&quot;&gt;IP: 124.104.33.1/24&lt;/span&gt;&lt;/div&gt;&lt;div style=&quot;text-align: left;&quot;&gt;&lt;span style=&quot;background-color: initial;&quot;&gt;GW: -&lt;/span&gt;&lt;/div&gt;&lt;div style=&quot;text-align: left;&quot;&gt;&lt;span style=&quot;background-color: initial;&quot;&gt;DNS: 127.0.0.1&lt;/span&gt;&lt;/div&gt;" style="text;html=1;strokeColor=#666666;fillColor=#f5f5f5;align=center;verticalAlign=middle;whiteSpace=wrap;rounded=0;fontColor=#333333;" vertex="1" parent="1">
          <mxGeometry x="490" y="210" width="110" height="50" as="geometry" />
        </mxCell>
        <mxCell id="6z_8eq6uR2tbXGdqgOz1-38" value="Administración" style="swimlane;whiteSpace=wrap;html=1;" vertex="1" parent="1">
          <mxGeometry x="425" y="320" width="240" height="160" as="geometry" />
        </mxCell>
        <mxCell id="6z_8eq6uR2tbXGdqgOz1-39" value="Admon01" style="text;html=1;align=center;verticalAlign=middle;resizable=0;points=[];autosize=1;strokeColor=none;fillColor=none;flipV=1;" vertex="1" parent="6z_8eq6uR2tbXGdqgOz1-38">
          <mxGeometry y="35" width="70" height="30" as="geometry" />
        </mxCell>
        <mxCell id="6z_8eq6uR2tbXGdqgOz1-40" value="Admon03" style="text;html=1;align=center;verticalAlign=middle;resizable=0;points=[];autosize=1;strokeColor=none;fillColor=none;flipV=1;" vertex="1" parent="6z_8eq6uR2tbXGdqgOz1-38">
          <mxGeometry y="115" width="70" height="30" as="geometry" />
        </mxCell>
        <mxCell id="6z_8eq6uR2tbXGdqgOz1-41" value="Admon02" style="text;html=1;align=center;verticalAlign=middle;resizable=0;points=[];autosize=1;strokeColor=none;fillColor=none;flipV=1;" vertex="1" parent="6z_8eq6uR2tbXGdqgOz1-38">
          <mxGeometry y="75" width="70" height="30" as="geometry" />
        </mxCell>
        <mxCell id="6z_8eq6uR2tbXGdqgOz1-42" value="&lt;div style=&quot;text-align: left;&quot;&gt;&lt;span style=&quot;background-color: initial;&quot;&gt;IP: 124.104.33.10-13/24&lt;/span&gt;&lt;/div&gt;&lt;div style=&quot;text-align: left;&quot;&gt;&lt;span style=&quot;background-color: initial;&quot;&gt;GW: 124.104.33.1&lt;/span&gt;&lt;/div&gt;&lt;div style=&quot;text-align: left;&quot;&gt;&lt;span style=&quot;background-color: initial;&quot;&gt;DNS: 124.104.33.1&lt;/span&gt;&lt;/div&gt;" style="text;html=1;strokeColor=#666666;fillColor=#f5f5f5;align=center;verticalAlign=middle;whiteSpace=wrap;rounded=0;fontColor=#333333;" vertex="1" parent="6z_8eq6uR2tbXGdqgOz1-38">
          <mxGeometry x="80" y="35" width="150" height="50" as="geometry" />
        </mxCell>
        <mxCell id="6z_8eq6uR2tbXGdqgOz1-60" value="ImpAdmon01&lt;br&gt;IP: 124.104.33.200/24&lt;br&gt;ImpAdmon02&lt;br&gt;IP: 124.104.33.201/24" style="rounded=0;whiteSpace=wrap;html=1;fillColor=#f8cecc;strokeColor=#b85450;" vertex="1" parent="6z_8eq6uR2tbXGdqgOz1-38">
          <mxGeometry x="90" y="90" width="130" height="60" as="geometry" />
        </mxCell>
        <mxCell id="6z_8eq6uR2tbXGdqgOz1-43" value="Dpto. Comeracial" style="swimlane;whiteSpace=wrap;html=1;" vertex="1" parent="1">
          <mxGeometry x="425" y="485" width="240" height="200" as="geometry" />
        </mxCell>
        <mxCell id="6z_8eq6uR2tbXGdqgOz1-44" value="Com01" style="text;html=1;align=center;verticalAlign=middle;resizable=0;points=[];autosize=1;strokeColor=none;fillColor=none;flipV=1;" vertex="1" parent="6z_8eq6uR2tbXGdqgOz1-43">
          <mxGeometry x="5" y="35" width="60" height="30" as="geometry" />
        </mxCell>
        <mxCell id="6z_8eq6uR2tbXGdqgOz1-45" value="Com03" style="text;html=1;align=center;verticalAlign=middle;resizable=0;points=[];autosize=1;strokeColor=none;fillColor=none;flipV=1;" vertex="1" parent="6z_8eq6uR2tbXGdqgOz1-43">
          <mxGeometry x="5" y="115" width="60" height="30" as="geometry" />
        </mxCell>
        <mxCell id="6z_8eq6uR2tbXGdqgOz1-46" value="Com02" style="text;html=1;align=center;verticalAlign=middle;resizable=0;points=[];autosize=1;strokeColor=none;fillColor=none;flipV=1;" vertex="1" parent="6z_8eq6uR2tbXGdqgOz1-43">
          <mxGeometry x="5" y="75" width="60" height="30" as="geometry" />
        </mxCell>
        <mxCell id="6z_8eq6uR2tbXGdqgOz1-47" value="&lt;div style=&quot;text-align: left;&quot;&gt;&lt;span style=&quot;background-color: initial;&quot;&gt;IP: 124.104.33.20-24/24&lt;/span&gt;&lt;/div&gt;&lt;div style=&quot;text-align: left;&quot;&gt;&lt;span style=&quot;background-color: initial;&quot;&gt;GW: 124.104.33.1&lt;/span&gt;&lt;/div&gt;&lt;div style=&quot;text-align: left;&quot;&gt;&lt;span style=&quot;background-color: initial;&quot;&gt;DNS: 124.104.33.1&lt;/span&gt;&lt;/div&gt;" style="text;html=1;strokeColor=#666666;fillColor=#f5f5f5;align=center;verticalAlign=middle;whiteSpace=wrap;rounded=0;fontColor=#333333;" vertex="1" parent="6z_8eq6uR2tbXGdqgOz1-43">
          <mxGeometry x="80" y="35" width="150" height="50" as="geometry" />
        </mxCell>
        <mxCell id="6z_8eq6uR2tbXGdqgOz1-53" value="Com04" style="text;html=1;align=center;verticalAlign=middle;resizable=0;points=[];autosize=1;strokeColor=none;fillColor=none;flipV=1;" vertex="1" parent="6z_8eq6uR2tbXGdqgOz1-43">
          <mxGeometry x="5" y="160" width="60" height="30" as="geometry" />
        </mxCell>
        <mxCell id="6z_8eq6uR2tbXGdqgOz1-48" value="Dpto. Soporte Técnico" style="swimlane;whiteSpace=wrap;html=1;" vertex="1" parent="1">
          <mxGeometry x="425" y="690" width="240" height="160" as="geometry" />
        </mxCell>
        <mxCell id="6z_8eq6uR2tbXGdqgOz1-49" value="Sop01" style="text;html=1;align=center;verticalAlign=middle;resizable=0;points=[];autosize=1;strokeColor=none;fillColor=none;flipV=1;" vertex="1" parent="6z_8eq6uR2tbXGdqgOz1-48">
          <mxGeometry x="5" y="35" width="60" height="30" as="geometry" />
        </mxCell>
        <mxCell id="6z_8eq6uR2tbXGdqgOz1-50" value="Sop03" style="text;html=1;align=center;verticalAlign=middle;resizable=0;points=[];autosize=1;strokeColor=none;fillColor=none;flipV=1;" vertex="1" parent="6z_8eq6uR2tbXGdqgOz1-48">
          <mxGeometry x="5" y="115" width="60" height="30" as="geometry" />
        </mxCell>
        <mxCell id="6z_8eq6uR2tbXGdqgOz1-51" value="Sop02" style="text;html=1;align=center;verticalAlign=middle;resizable=0;points=[];autosize=1;strokeColor=none;fillColor=none;flipV=1;" vertex="1" parent="6z_8eq6uR2tbXGdqgOz1-48">
          <mxGeometry x="5" y="75" width="60" height="30" as="geometry" />
        </mxCell>
        <mxCell id="6z_8eq6uR2tbXGdqgOz1-52" value="&lt;div style=&quot;text-align: left;&quot;&gt;&lt;span style=&quot;background-color: initial;&quot;&gt;IP: 124.104.33.30-33/24&lt;/span&gt;&lt;/div&gt;&lt;div style=&quot;text-align: left;&quot;&gt;&lt;span style=&quot;background-color: initial;&quot;&gt;GW: 124.104.33.1&lt;/span&gt;&lt;/div&gt;&lt;div style=&quot;text-align: left;&quot;&gt;&lt;span style=&quot;background-color: initial;&quot;&gt;DNS: 124.104.33.1&lt;/span&gt;&lt;/div&gt;" style="text;html=1;strokeColor=#666666;fillColor=#f5f5f5;align=center;verticalAlign=middle;whiteSpace=wrap;rounded=0;fontColor=#333333;" vertex="1" parent="6z_8eq6uR2tbXGdqgOz1-48">
          <mxGeometry x="80" y="35" width="150" height="50" as="geometry" />
        </mxCell>
        <mxCell id="6z_8eq6uR2tbXGdqgOz1-54" value="Dpto. Programadores Web" style="swimlane;whiteSpace=wrap;html=1;" vertex="1" parent="1">
          <mxGeometry x="425" y="860" width="240" height="160" as="geometry" />
        </mxCell>
        <mxCell id="6z_8eq6uR2tbXGdqgOz1-55" value="Pro01" style="text;html=1;align=center;verticalAlign=middle;resizable=0;points=[];autosize=1;strokeColor=none;fillColor=none;flipV=1;" vertex="1" parent="6z_8eq6uR2tbXGdqgOz1-54">
          <mxGeometry x="5" y="35" width="60" height="30" as="geometry" />
        </mxCell>
        <mxCell id="6z_8eq6uR2tbXGdqgOz1-56" value="Pro03" style="text;html=1;align=center;verticalAlign=middle;resizable=0;points=[];autosize=1;strokeColor=none;fillColor=none;flipV=1;" vertex="1" parent="6z_8eq6uR2tbXGdqgOz1-54">
          <mxGeometry x="5" y="115" width="60" height="30" as="geometry" />
        </mxCell>
        <mxCell id="6z_8eq6uR2tbXGdqgOz1-57" value="Pro02" style="text;html=1;align=center;verticalAlign=middle;resizable=0;points=[];autosize=1;strokeColor=none;fillColor=none;flipV=1;" vertex="1" parent="6z_8eq6uR2tbXGdqgOz1-54">
          <mxGeometry x="5" y="75" width="60" height="30" as="geometry" />
        </mxCell>
        <mxCell id="6z_8eq6uR2tbXGdqgOz1-58" value="&lt;div style=&quot;text-align: left;&quot;&gt;&lt;span style=&quot;background-color: initial;&quot;&gt;IP: 124.104.33.40-43/24&lt;/span&gt;&lt;/div&gt;&lt;div style=&quot;text-align: left;&quot;&gt;&lt;span style=&quot;background-color: initial;&quot;&gt;GW: 124.104.33.1&lt;/span&gt;&lt;/div&gt;&lt;div style=&quot;text-align: left;&quot;&gt;&lt;span style=&quot;background-color: initial;&quot;&gt;DNS: 124.104.33.1&lt;/span&gt;&lt;/div&gt;" style="text;html=1;strokeColor=#666666;fillColor=#f5f5f5;align=center;verticalAlign=middle;whiteSpace=wrap;rounded=0;fontColor=#333333;" vertex="1" parent="6z_8eq6uR2tbXGdqgOz1-54">
          <mxGeometry x="80" y="35" width="150" height="50" as="geometry" />
        </mxCell>
        <mxCell id="6z_8eq6uR2tbXGdqgOz1-59" value="ImpTaller&lt;br&gt;IP: 124.104.33.203/24" style="rounded=0;whiteSpace=wrap;html=1;fillColor=#f8cecc;strokeColor=#b85450;" vertex="1" parent="6z_8eq6uR2tbXGdqgOz1-54">
          <mxGeometry x="90" y="100" width="130" height="40" as="geometry" />
        </mxCell>
        <mxCell id="6z_8eq6uR2tbXGdqgOz1-61" value="" style="endArrow=none;html=1;rounded=0;entryX=0;entryY=0.5;entryDx=0;entryDy=0;" edge="1" parent="1" target="6z_8eq6uR2tbXGdqgOz1-4">
          <mxGeometry width="50" height="50" relative="1" as="geometry">
            <mxPoint x="320" y="940" as="sourcePoint" />
            <mxPoint x="480" y="680" as="targetPoint" />
            <Array as="points">
              <mxPoint x="320" y="285" />
            </Array>
          </mxGeometry>
        </mxCell>
        <mxCell id="6z_8eq6uR2tbXGdqgOz1-63" value="" style="endArrow=none;html=1;rounded=0;entryX=0;entryY=0.5;entryDx=0;entryDy=0;" edge="1" parent="1" target="6z_8eq6uR2tbXGdqgOz1-54">
          <mxGeometry width="50" height="50" relative="1" as="geometry">
            <mxPoint x="320" y="940" as="sourcePoint" />
            <mxPoint x="480" y="680" as="targetPoint" />
          </mxGeometry>
        </mxCell>
        <mxCell id="6z_8eq6uR2tbXGdqgOz1-64" value="" style="endArrow=none;html=1;rounded=0;entryX=0;entryY=0.5;entryDx=0;entryDy=0;" edge="1" parent="1">
          <mxGeometry width="50" height="50" relative="1" as="geometry">
            <mxPoint x="320" y="780" as="sourcePoint" />
            <mxPoint x="425" y="780" as="targetPoint" />
          </mxGeometry>
        </mxCell>
        <mxCell id="6z_8eq6uR2tbXGdqgOz1-65" value="" style="endArrow=none;html=1;rounded=0;entryX=0;entryY=0.5;entryDx=0;entryDy=0;" edge="1" parent="1">
          <mxGeometry width="50" height="50" relative="1" as="geometry">
            <mxPoint x="320" y="585" as="sourcePoint" />
            <mxPoint x="425" y="585" as="targetPoint" />
          </mxGeometry>
        </mxCell>
        <mxCell id="6z_8eq6uR2tbXGdqgOz1-66" value="" style="endArrow=none;html=1;rounded=0;entryX=0;entryY=0.5;entryDx=0;entryDy=0;" edge="1" parent="1">
          <mxGeometry width="50" height="50" relative="1" as="geometry">
            <mxPoint x="320" y="399.5" as="sourcePoint" />
            <mxPoint x="425" y="399.5" as="targetPoint" />
          </mxGeometry>
        </mxCell>
        <mxCell id="6z_8eq6uR2tbXGdqgOz1-67" value="AULA" style="text;html=1;strokeColor=none;fillColor=none;align=center;verticalAlign=middle;whiteSpace=wrap;rounded=0;rotation=-10;" vertex="1" parent="1">
          <mxGeometry x="161.25" y="175" width="60" height="30" as="geometry" />
        </mxCell>
        <mxCell id="6z_8eq6uR2tbXGdqgOz1-69" value="EMPRESA" style="text;html=1;strokeColor=none;fillColor=none;align=center;verticalAlign=middle;whiteSpace=wrap;rounded=0;rotation=10;" vertex="1" parent="1">
          <mxGeometry x="380" y="170" width="60" height="30" as="geometry" />
        </mxCell>
        <mxCell id="6z_8eq6uR2tbXGdqgOz1-72" value="" style="edgeStyle=orthogonalEdgeStyle;rounded=0;orthogonalLoop=1;jettySize=auto;html=1;shape=link;" edge="1" parent="1" source="6z_8eq6uR2tbXGdqgOz1-71" target="6z_8eq6uR2tbXGdqgOz1-1">
          <mxGeometry relative="1" as="geometry" />
        </mxCell>
        <mxCell id="6z_8eq6uR2tbXGdqgOz1-71" value="Router" style="rounded=1;whiteSpace=wrap;html=1;" vertex="1" parent="1">
          <mxGeometry x="260" y="100" width="80" height="30" as="geometry" />
        </mxCell>
      </root>
    </mxGraphModel>
  </diagram>
</mxfile>
